<?xml version="1.0" encoding="UTF-8"?>
<!-- Generator: visioncortex VTracer 0.6.2 -->
<svg version="1.1" xmlns="http://www.w3.org/2000/svg" width="1280" height="1183">
<path d="M0 0 C1.20527344 -0.04898438 2.41054688 -0.09796875 3.65234375 -0.1484375 C15.90600974 0.61217476 28.84729786 8.86254433 39.8125 14 C41.62153148 14.84355656 43.43078093 15.68664582 45.24023438 16.52929688 C48.98977422 18.27587107 52.73837961 20.02442783 56.48632812 21.77441406 C64.3260787 25.4330777 72.17721382 29.06712269 80.02819824 32.70159912 C84.29016282 34.67492095 88.55128621 36.65005758 92.8125 38.625 C94.52082936 39.41667524 96.22916269 40.20834191 97.9375 41 C108.18749999 45.75 108.18749999 45.75 110.74983215 46.93742371 C112.45872346 47.72934795 114.16761628 48.52126893 115.87651062 49.31318665 C120.13881935 51.28838556 124.40110202 53.26364069 128.66333008 55.23901367 C136.4524971 58.84891392 144.24187684 62.45835213 152.03219604 66.06576538 C156.43825499 68.10607524 160.84413388 70.14677378 165.25 72.1875 C166.11069092 72.58610229 166.97138184 72.98470459 167.8581543 73.39538574 C176.92790651 77.59621677 185.99447662 81.80344673 195.04618835 86.04302979 C200.44022238 88.56943146 205.84063139 91.08200316 211.2421875 93.59228516 C213.98057139 94.86741254 216.71395755 96.15275852 219.4453125 97.44287109 C223.23919518 99.23462976 227.04002676 101.01086654 230.84545898 102.7779541 C232.30850051 103.46065848 233.76902489 104.14878672 235.22680664 104.84265137 C237.24893437 105.80418895 239.27924077 106.74587469 241.3125 107.68359375 C242.47265625 108.22814209 243.6328125 108.77269043 244.828125 109.33374023 C249.44907124 110.82138635 252.34493843 110.15092921 256.7019043 108.18261719 C257.58789307 107.68407227 258.47388184 107.18552734 259.38671875 106.671875 C260.40056641 106.11048828 261.41441406 105.54910156 262.45898438 104.97070312 C263.54501953 104.36162109 264.63105469 103.75253906 265.75 103.125 C268.10581696 101.83412329 270.46297035 100.54646435 272.82421875 99.265625 C273.42724823 98.93836426 274.03027771 98.61110352 274.65158081 98.27392578 C302.92476435 82.99812062 332.95796487 70.77022618 363.3203125 60.3203125 C365.88545729 59.43603182 368.44294395 58.53234247 371 57.625 C447.03269339 31.04303329 528.46512849 21.02820167 882.0625 85.375 C883.00303223 85.81247559 883.94356445 86.24995117 884.91259766 86.70068359 C925.25340544 105.50808985 925.25340544 105.50808985 939.24389648 115.60961914 C942.58369179 117.01521161 945.3691961 115.65607096 948.58154297 114.35375977 C949.48018066 113.92893311 950.37881836 113.50410645 951.3046875 113.06640625 C952.87355713 112.33079468 952.87355713 112.33079468 954.47412109 111.58032227 C955.61703613 111.03819092 956.75995117 110.49605957 957.9375 109.9375 C959.80571246 109.05918386 961.67489584 108.18295532 963.5440979 107.30674744 C964.88844645 106.67640147 966.23249348 106.04541211 967.57626343 105.41383362 C975.34379605 101.76514998 983.14002942 98.17902707 990.93521118 94.58990479 C1003.55452858 88.77820086 1016.16332174 82.94456769 1028.75 77.0625 C1029.35883026 76.77798981 1029.96766052 76.49347961 1030.59494019 76.2003479 C1032.41226661 75.3510449 1034.22957091 74.50169455 1036.046875 73.65234375 C1054.99148964 64.79847633 1073.97479327 56.02886673 1092.96447754 47.27224731 C1103.9044541 42.22672546 1114.83501148 37.16185045 1125.75 32.0625 C1126.94391357 31.50522217 1128.13782715 30.94794434 1129.36791992 30.3737793 C1134.85388263 27.81221255 1140.33791902 25.24669412 1145.81681824 22.6700592 C1148.35377669 21.47802334 1150.89249885 20.28977613 1153.43154907 19.10220337 C1155.17885196 18.28334299 1156.92382864 17.45952447 1158.66870117 16.63549805 C1171.7909847 10.50374651 1183.37971149 5.6351629 1198.02734375 9.0703125 C1208.8667467 13.04531697 1216.4830961 20.55043803 1221.4375 30.875 C1225.44433087 42.10798523 1222.9501281 55.32274416 1220.70532227 66.69238281 C1220.44858152 68.04940263 1220.19313938 69.40666864 1219.93886375 70.76415253 C1219.24754429 74.43484391 1218.53832717 78.10186626 1217.82576823 81.76848507 C1217.06111288 85.72066407 1216.31365092 89.67609809 1215.56410217 93.63116455 C1214.27376895 100.42754956 1212.97305852 107.22187844 1211.6651001 114.01489258 C1209.78454595 123.78246461 1207.92151512 133.55331557 1206.06312895 143.32512665 C1203.11589477 158.82091473 1200.15756775 174.31455866 1197.19091797 189.80664062 C1191.82862789 217.8101909 1186.48790744 245.81782797 1181.16829777 273.82951736 C1179.66132331 281.76315652 1178.14905541 289.695752 1176.62954801 297.62700057 C1175.47661983 303.64601828 1174.32984816 309.6661927 1173.18536186 315.68682098 C1172.7188839 318.13466696 1172.25019943 320.58209365 1171.77913094 323.02906036 C1171.14065546 326.34706084 1170.51003898 329.66646208 1169.88134766 332.98632812 C1169.69464288 333.94602634 1169.5079381 334.90572456 1169.3155756 335.89450455 C1167.35378166 345.31582762 1167.35378166 345.31582762 1169.828125 354.30078125 C1170.21750244 355.00106445 1170.60687988 355.70134766 1171.00805664 356.42285156 C1171.43852295 357.17018555 1171.86898926 357.91751953 1172.3125 358.6875 C1202.77630878 414.13637215 1221.40601727 477.70527102 1229.0625 540.375 C1229.21203125 541.53515625 1229.3615625 542.6953125 1229.515625 543.890625 C1234.51223729 584.03582029 1234.47602176 626.28853159 1229.0625 666.375 C1228.88874205 667.71185979 1228.71541325 669.04877541 1228.54248047 670.38574219 C1224.54046918 700.94184115 1218.20360072 730.93319881 1209.0625 760.375 C1208.72524902 761.4690918 1208.38799805 762.56318359 1208.04052734 763.69042969 C1191.30081581 817.41322483 1165.62940822 868.53081382 1133.0625 914.375 C1132.56041016 915.08817383 1132.05832031 915.80134766 1131.54101562 916.53613281 C1124.24069725 926.8939646 1116.59987792 936.87651932 1108.50683594 946.62646484 C1106.45876483 949.10589102 1104.45256309 951.61872046 1102.4375 954.125 C1098.4151575 959.04201795 1094.16410928 963.7088579 1089.8359375 968.35546875 C1087.79343354 970.55434582 1085.82329466 972.80460919 1083.86547852 975.07910156 C1080.21272004 979.25932375 1076.37167276 983.21068282 1072.44140625 987.12890625 C1071.73781479 987.83345444 1071.03422333 988.53800262 1070.30931091 989.26390076 C1068.83235352 990.74153367 1067.35415258 992.21792457 1065.87475586 993.69311523 C1063.63084915 995.93166481 1061.39233296 998.17550473 1059.15429688 1000.41992188 C1057.70865382 1001.86490404 1056.26270055 1003.30957592 1054.81640625 1004.75390625 C1054.1578212 1005.41451553 1053.49923615 1006.07512482 1052.82069397 1006.75575256 C1048.39503475 1011.15952837 1043.8010655 1015.31128685 1039.0625 1019.375 C1037.96831479 1020.32501981 1036.87448785 1021.27545266 1035.78125 1022.2265625 C1021.03283763 1034.96413757 1005.88344521 1046.99275268 990.0625 1058.375 C989.26859863 1058.94863281 988.47469727 1059.52226563 987.65673828 1060.11328125 C961.43686903 1078.99627589 933.62762297 1095.23453163 904.87841797 1109.93115234 C902.20500841 1111.30192954 899.54155635 1112.69050318 896.87890625 1114.08203125 C826.14477546 1150.6825197 746.05630275 1171.93061264 667.06134033 1180.16210938 C665.07860985 1180.37328419 663.09762475 1180.60064091 661.11669922 1180.828125 C614.35676125 1186.16421199 564.78960902 1185.8052592 518.0625 1180.375 C517.29168091 1180.28778687 516.52086182 1180.20057373 515.72668457 1180.11071777 C481.98765836 1176.29143188 448.86771651 1170.36861559 415.99432373 1161.87310791 C414.13417124 1161.39347995 412.27243572 1160.92000439 410.41064453 1160.44677734 C379.53616357 1152.54567624 349.30702374 1142.02544191 320.0625 1129.375 C318.73992187 1128.80386475 318.73992187 1128.80386475 317.390625 1128.22119141 C311.57421958 1125.69101044 305.8093645 1123.05895152 300.0625 1120.375 C298.62922363 1119.70863525 298.62922363 1119.70863525 297.16699219 1119.02880859 C251.63533199 1097.77924256 207.91559113 1071.3676677 169.0625 1039.375 C168.22203125 1038.69566406 167.3815625 1038.01632812 166.515625 1037.31640625 C155.25947283 1028.19111526 144.29397782 1018.7559311 133.68554688 1008.88476562 C131.89236999 1007.21674429 130.09455227 1005.55379457 128.296875 1003.890625 C110.7706244 987.64326384 110.7706244 987.64326384 103.1328125 978.7265625 C100.93567005 976.23094032 98.67360209 973.80737912 96.39746094 971.3840332 C90.33095697 964.92169938 84.60046929 958.29975762 79.0625 951.375 C78.08121778 950.18341891 77.09801955 948.99341404 76.11328125 947.8046875 C63.08371854 932.03111365 51.18920083 915.53797327 40.0625 898.375 C39.34030273 897.27067627 39.34030273 897.27067627 38.60351562 896.14404297 C-6.48265232 827.05505865 -35.08192463 748.23102878 -44.9375 666.375 C-45.08703125 665.23160156 -45.2365625 664.08820312 -45.390625 662.91015625 C-50.53654706 622.76309191 -50.21549984 580.49294803 -44.9375 540.375 C-44.85264343 539.71268372 -44.76778687 539.05036743 -44.68035889 538.36798096 C-37.15078529 479.61912543 -20.3330775 423.95874936 5.125 370.5 C5.62531738 369.44772217 6.12563477 368.39544434 6.64111328 367.3112793 C8.9069174 362.60842272 11.22256592 357.9981088 13.89453125 353.51171875 C14.32564209 352.77228027 14.75675293 352.0328418 15.20092773 351.27099609 C15.98335669 349.9526844 16.79613694 348.65153259 17.64868164 347.37744141 C20.16819385 343.11899672 20.10904152 340.03123513 19.34411621 335.17758179 C19.14770035 333.92858974 18.95128448 332.6795977 18.74891663 331.39275742 C17.56227949 324.35298643 16.24694539 317.33882526 14.90820312 310.32666016 C14.59170252 308.65608649 14.27548356 306.98545944 13.95952034 305.31478405 C13.10365176 300.79352191 12.24394554 296.27299715 11.3835721 291.75259042 C10.46758128 286.93606752 9.5553166 282.11883893 8.64266968 277.30168152 C7.08933338 269.10527197 5.53390711 260.90926153 3.97698975 252.71353149 C1.56351909 240.00846454 -0.84551474 227.30255869 -3.25341797 214.59643555 C-3.45144036 213.55152966 -3.64946275 212.50662377 -3.85348582 211.43005407 C-4.650147 207.22628314 -5.44679645 203.02250999 -6.24339378 198.81872696 C-7.42881608 192.5631097 -8.61454241 186.30755016 -9.80051363 180.05203694 C-15.73394468 148.75502009 -21.64485984 117.45392068 -27.50875854 86.1437912 C-28.06113531 83.19478573 -28.61389312 80.2458519 -29.16674805 77.29693604 C-30.0062059 72.81880656 -30.84492195 68.34053899 -31.68281174 63.86211586 C-31.97622711 62.29392118 -32.26978171 60.72575254 -32.56349564 59.15761375 C-32.95196535 57.08281121 -33.33964697 55.00786313 -33.72705078 52.93286133 C-33.93903107 51.7987532 -34.15101135 50.66464508 -34.36941528 49.49617004 C-36.53249624 37.61177449 -36.89462195 27.25277408 -30.25 16.625 C-22.64639019 6.13014103 -12.92366448 0.35258686 0 0 Z " fill="#FBFDFD" transform="translate(47.9375,-0.37499999999999994)"/>
<path d="M0 0 C1.20527344 -0.04898438 2.41054688 -0.09796875 3.65234375 -0.1484375 C15.90600974 0.61217476 28.84729786 8.86254433 39.8125 14 C41.62153148 14.84355656 43.43078093 15.68664582 45.24023438 16.52929688 C48.98977422 18.27587107 52.73837961 20.02442783 56.48632812 21.77441406 C64.3260787 25.4330777 72.17721382 29.06712269 80.02819824 32.70159912 C84.29016282 34.67492095 88.55128621 36.65005758 92.8125 38.625 C94.52082936 39.41667524 96.22916269 40.20834191 97.9375 41 C108.18749999 45.75 108.18749999 45.75 110.74983215 46.93742371 C112.45872346 47.72934795 114.16761628 48.52126893 115.87651062 49.31318665 C120.13881935 51.28838556 124.40110202 53.26364069 128.66333008 55.23901367 C136.4524971 58.84891392 144.24187684 62.45835213 152.03219604 66.06576538 C156.43825499 68.10607524 160.84413388 70.14677378 165.25 72.1875 C166.11069092 72.58610229 166.97138184 72.98470459 167.8581543 73.39538574 C176.92790651 77.59621677 185.99447662 81.80344673 195.04618835 86.04302979 C200.44022238 88.56943146 205.84063139 91.08200316 211.2421875 93.59228516 C213.98057139 94.86741254 216.71395755 96.15275852 219.4453125 97.44287109 C223.23919518 99.23462976 227.04002676 101.01086654 230.84545898 102.7779541 C232.30850051 103.46065848 233.76902489 104.14878672 235.22680664 104.84265137 C237.24893437 105.80418895 239.27924077 106.74587469 241.3125 107.68359375 C242.47265625 108.22814209 243.6328125 108.77269043 244.828125 109.33374023 C249.44907124 110.82138635 252.34493843 110.15092921 256.7019043 108.18261719 C257.58789307 107.68407227 258.47388184 107.18552734 259.38671875 106.671875 C260.40056641 106.11048828 261.41441406 105.54910156 262.45898438 104.97070312 C263.54501953 104.36162109 264.63105469 103.75253906 265.75 103.125 C268.10581696 101.83412329 270.46297035 100.54646435 272.82421875 99.265625 C273.42724823 98.93836426 274.03027771 98.61110352 274.65158081 98.27392578 C302.92476435 82.99812062 332.95796487 70.77022618 363.3203125 60.3203125 C365.88545729 59.43603182 368.44294395 58.53234247 371 57.625 C447.03269339 31.04303329 528.46512849 21.02820167 882.0625 85.375 C883.00303223 85.81247559 883.94356445 86.24995117 884.91259766 86.70068359 C925.25340544 105.50808985 925.25340544 105.50808985 939.24389648 115.60961914 C942.58369179 117.01521161 945.3691961 115.65607096 948.58154297 114.35375977 C949.48018066 113.92893311 950.37881836 113.50410645 951.3046875 113.06640625 C952.87355713 112.33079468 952.87355713 112.33079468 954.47412109 111.58032227 C955.61703613 111.03819092 956.75995117 110.49605957 957.9375 109.9375 C959.80571246 109.05918386 961.67489584 108.18295532 963.5440979 107.30674744 C964.88844645 106.67640147 966.23249348 106.04541211 967.57626343 105.41383362 C975.34379605 101.76514998 983.14002942 98.17902707 990.93521118 94.58990479 C1003.55452858 88.77820086 1016.16332174 82.94456769 1028.75 77.0625 C1029.35883026 76.77798981 1029.96766052 76.49347961 1030.59494019 76.2003479 C1032.41226661 75.3510449 1034.22957091 74.50169455 1036.046875 73.65234375 C1054.99148964 64.79847633 1073.97479327 56.02886673 1092.96447754 47.27224731 C1103.9044541 42.22672546 1114.83501148 37.16185045 1125.75 32.0625 C1126.94391357 31.50522217 1128.13782715 30.94794434 1129.36791992 30.3737793 C1134.85388263 27.81221255 1140.33791902 25.24669412 1145.81681824 22.6700592 C1148.35377669 21.47802334 1150.89249885 20.28977613 1153.43154907 19.10220337 C1155.17885196 18.28334299 1156.92382864 17.45952447 1158.66870117 16.63549805 C1171.7909847 10.50374651 1183.37971149 5.6351629 1198.02734375 9.0703125 C1208.8667467 13.04531697 1216.4830961 20.55043803 1221.4375 30.875 C1225.44433087 42.10798523 1222.9501281 55.32274416 1220.70532227 66.69238281 C1220.44858152 68.04940263 1220.19313938 69.40666864 1219.93886375 70.76415253 C1219.24754429 74.43484391 1218.53832717 78.10186626 1217.82576823 81.76848507 C1217.06111288 85.72066407 1216.31365092 89.67609809 1215.56410217 93.63116455 C1214.27376895 100.42754956 1212.97305852 107.22187844 1211.6651001 114.01489258 C1209.78454595 123.78246461 1207.92151512 133.55331557 1206.06312895 143.32512665 C1203.11589477 158.82091473 1200.15756775 174.31455866 1197.19091797 189.80664062 C1191.82862789 217.8101909 1186.48790744 245.81782797 1181.16829777 273.82951736 C1179.66132331 281.76315652 1178.14905541 289.695752 1176.62954801 297.62700057 C1175.47661983 303.64601828 1174.32984816 309.6661927 1173.18536186 315.68682098 C1172.7188839 318.13466696 1172.25019943 320.58209365 1171.77913094 323.02906036 C1171.14065546 326.34706084 1170.51003898 329.66646208 1169.88134766 332.98632812 C1169.69464288 333.94602634 1169.5079381 334.90572456 1169.3155756 335.89450455 C1167.35378166 345.31582762 1167.35378166 345.31582762 1169.828125 354.30078125 C1170.21750244 355.00106445 1170.60687988 355.70134766 1171.00805664 356.42285156 C1171.43852295 357.17018555 1171.86898926 357.91751953 1172.3125 358.6875 C1202.77630878 414.13637215 1221.40601727 477.70527102 1229.0625 540.375 C1229.21203125 541.53515625 1229.3615625 542.6953125 1229.515625 543.890625 C1234.51223729 584.03582029 1234.47602176 626.28853159 1229.0625 666.375 C1228.88874205 667.71185979 1228.71541325 669.04877541 1228.54248047 670.38574219 C1224.54046918 700.94184115 1218.20360072 730.93319881 1209.0625 760.375 C1208.72524902 761.4690918 1208.38799805 762.56318359 1208.04052734 763.69042969 C1191.30081581 817.41322483 1165.62940822 868.53081382 1133.0625 914.375 C1132.56041016 915.08817383 1132.05832031 915.80134766 1131.54101562 916.53613281 C1124.24069725 926.8939646 1116.59987792 936.87651932 1108.50683594 946.62646484 C1106.45876483 949.10589102 1104.45256309 951.61872046 1102.4375 954.125 C1098.4151575 959.04201795 1094.16410928 963.7088579 1089.8359375 968.35546875 C1087.79343354 970.55434582 1085.82329466 972.80460919 1083.86547852 975.07910156 C1080.21272004 979.25932375 1076.37167276 983.21068282 1072.44140625 987.12890625 C1071.73781479 987.83345444 1071.03422333 988.53800262 1070.30931091 989.26390076 C1068.83235352 990.74153367 1067.35415258 992.21792457 1065.87475586 993.69311523 C1063.63084915 995.93166481 1061.39233296 998.17550473 1059.15429688 1000.41992188 C1057.70865382 1001.86490404 1056.26270055 1003.30957592 1054.81640625 1004.75390625 C1054.1578212 1005.41451553 1053.49923615 1006.07512482 1052.82069397 1006.75575256 C1048.39503475 1011.15952837 1043.8010655 1015.31128685 1039.0625 1019.375 C1037.96831479 1020.32501981 1036.87448785 1021.27545266 1035.78125 1022.2265625 C1021.03283763 1034.96413757 1005.88344521 1046.99275268 990.0625 1058.375 C989.26859863 1058.94863281 988.47469727 1059.52226563 987.65673828 1060.11328125 C961.43686903 1078.99627589 933.62762297 1095.23453163 904.87841797 1109.93115234 C902.20500841 1111.30192954 899.54155635 1112.69050318 896.87890625 1114.08203125 C826.14477546 1150.6825197 746.05630275 1171.93061264 667.06134033 1180.16210938 C665.07860985 1180.37328419 663.09762475 1180.60064091 661.11669922 1180.828125 C614.35676125 1186.16421199 564.78960902 1185.8052592 518.0625 1180.375 C517.29168091 1180.28778687 516.52086182 1180.20057373 515.72668457 1180.11071777 C481.98765836 1176.29143188 448.86771651 1170.36861559 415.99432373 1161.87310791 C414.13417124 1161.39347995 412.27243572 1160.92000439 410.41064453 1160.44677734 C379.53616357 1152.54567624 349.30702374 1142.02544191 320.0625 1129.375 C318.73992187 1128.80386475 318.73992187 1128.80386475 317.390625 1128.22119141 C311.57421958 1125.69101044 305.8093645 1123.05895152 300.0625 1120.375 C298.62922363 1119.70863525 298.62922363 1119.70863525 297.16699219 1119.02880859 C251.63533199 1097.77924256 207.91559113 1071.3676677 169.0625 1039.375 C168.22203125 1038.69566406 167.3815625 1038.01632812 166.515625 1037.31640625 C155.25947283 1028.19111526 144.29397782 1018.7559311 133.68554688 1008.88476562 C131.89236999 1007.21674429 130.09455227 1005.55379457 128.296875 1003.890625 C110.7706244 987.64326384 110.7706244 987.64326384 103.1328125 978.7265625 C100.93567005 976.23094032 98.67360209 973.80737912 96.39746094 971.3840332 C90.33095697 964.92169938 84.60046929 958.29975762 79.0625 951.375 C78.08121778 950.18341891 77.09801955 948.99341404 76.11328125 947.8046875 C63.08371854 932.03111365 51.18920083 915.53797327 40.0625 898.375 C39.34030273 897.27067627 39.34030273 897.27067627 38.60351562 896.14404297 C-6.48265232 827.05505865 -35.08192463 748.23102878 -44.9375 666.375 C-45.08703125 665.23160156 -45.2365625 664.08820312 -45.390625 662.91015625 C-50.53654706 622.76309191 -50.21549984 580.49294803 -44.9375 540.375 C-44.85264343 539.71268372 -44.76778687 539.05036743 -44.68035889 538.36798096 C-37.15078529 479.61912543 -20.3330775 423.95874936 5.125 370.5 C5.62531738 369.44772217 6.12563477 368.39544434 6.64111328 367.3112793 C8.9069174 362.60842272 11.22256592 357.9981088 13.89453125 353.51171875 C14.32564209 352.77228027 14.75675293 352.0328418 15.20092773 351.27099609 C15.98335669 349.9526844 16.79613694 348.65153259 17.64868164 347.37744141 C20.16819385 343.11899672 20.10904152 340.03123513 19.34411621 335.17758179 C19.14770035 333.92858974 18.95128448 332.6795977 18.74891663 331.39275742 C17.56227949 324.35298643 16.24694539 317.33882526 14.90820312 310.32666016 C14.59170252 308.65608649 14.27548356 306.98545944 13.95952034 305.31478405 C13.10365176 300.79352191 12.24394554 296.27299715 11.3835721 291.75259042 C10.46758128 286.93606752 9.5553166 282.11883893 8.64266968 277.30168152 C7.08933338 269.10527197 5.53390711 260.90926153 3.97698975 252.71353149 C1.56351909 240.00846454 -0.84551474 227.30255869 -3.25341797 214.59643555 C-3.45144036 213.55152966 -3.64946275 212.50662377 -3.85348582 211.43005407 C-4.650147 207.22628314 -5.44679645 203.02250999 -6.24339378 198.81872696 C-7.42881608 192.5631097 -8.61454241 186.30755016 -9.80051363 180.05203694 C-15.73394468 148.75502009 -21.64485984 117.45392068 -27.50875854 86.1437912 C-28.06113531 83.19478573 -28.61389312 80.2458519 -29.16674805 77.29693604 C-30.0062059 72.81880656 -30.84492195 68.34053899 -31.68281174 63.86211586 C-31.97622711 62.29392118 -32.26978171 60.72575254 -32.56349564 59.15761375 C-32.95196535 57.08281121 -33.33964697 55.00786313 -33.72705078 52.93286133 C-33.93903107 51.7987532 -34.15101135 50.66464508 -34.36941528 49.49617004 C-36.53249624 37.61177449 -36.89462195 27.25277408 -30.25 16.625 C-22.64639019 6.13014103 -12.92366448 0.35258686 0 0 Z M34.0625 77.375 C31.52536438 81.15073972 32.18110289 83.80388935 33.01182556 88.15118408 C33.20164823 89.17420187 33.20164823 89.17420187 33.39530569 90.21788669 C33.82375576 92.50883963 34.27115626 94.79567616 34.71850586 97.08300781 C35.02998912 98.72695633 35.34029762 100.37112781 35.64952087 102.01550293 C36.49824328 106.51042213 37.36343042 111.00203666 38.23132777 115.49328709 C39.15226499 120.27466316 40.05778132 125.05895864 40.96498108 129.84295654 C42.70386353 139.00020796 44.45614163 148.15484249 46.21334225 157.30859447 C48.14977826 167.39868761 50.07344416 177.49119609 51.99496913 187.58413792 C52.93888539 192.54181188 53.88349219 197.49935426 54.82803345 202.45690918 C55.01474912 203.43698425 55.2014648 204.41705932 55.39383852 205.42683363 C57.27603533 215.30626543 59.15940546 225.18547332 61.04337811 235.06456661 C61.60312453 238.00003259 62.16268157 240.93553462 62.72221947 243.87104034 C64.58284603 253.63047019 66.44764445 263.38907823 68.32012939 273.14624023 C69.94752324 281.62641106 71.56728213 290.10799857 73.17776424 298.591398 C74.00806415 302.96354402 74.84207332 307.33489855 75.68595695 311.70444489 C76.4642048 315.73432671 77.23213796 319.76603797 77.99225116 323.7993784 C78.26902629 325.25816347 78.54949326 326.7162543 78.8341496 328.173522 C83.26445924 350.887716 83.26445924 350.887716 77.8125 360.75 C77.45897461 361.4095166 77.10544922 362.0690332 76.74121094 362.74853516 C75.54100359 364.97274919 74.3047507 367.17401528 73.0625 369.375 C32.98877014 441.25509999 10.86382552 520.20216905 10.8125 602.6875 C10.81182526 603.6713266 10.81115051 604.6551532 10.81045532 605.66879272 C10.83030796 624.04992368 11.79820238 642.1369484 14.0625 660.375 C14.22347168 661.67550293 14.38444336 662.97600586 14.55029297 664.31591797 C26.45243853 756.34317026 66.7885829 845.88278224 127.71191406 915.81396484 C129.1846686 917.51620499 130.63641325 919.23497439 132.0859375 920.95703125 C137.11929527 926.92052628 142.17813978 932.72285592 147.83203125 938.1171875 C149.76074669 940.06954744 151.53248574 942.06601639 153.31640625 944.1484375 C157.02737538 948.42335511 161.03576972 952.28276581 165.1875 956.125 C165.92887207 956.81601807 166.67024414 957.50703613 167.43408203 958.21899414 C168.93424129 959.6160114 170.43600627 961.01130657 171.93945312 962.40478516 C173.85654819 964.18387407 175.76577742 965.97086611 177.671875 967.76171875 C184.24801322 973.92032438 191.0171973 979.75575723 198.0625 985.375 C199.18041194 986.2842663 200.2975606 987.1944716 201.4140625 988.10546875 C232.87457434 1013.68322531 267.21947776 1035.48200789 303.0625 1054.375 C303.98981934 1054.86468262 304.91713867 1055.35436523 305.87255859 1055.85888672 C372.54524679 1090.79035386 447.36870551 1111.50019363 522.0625 1119.375 C523.11298523 1119.4877829 523.11298523 1119.4877829 524.18469238 1119.60284424 C569.42152258 1124.41285249 615.84997888 1124.48635559 661.0625 1119.375 C662.20223267 1119.24771515 662.20223267 1119.24771515 663.36499023 1119.11785889 C750.75827973 1109.26747425 836.06624706 1082.16101223 986.0625 984.375 C986.58827637 983.93269043 987.11405273 983.49038086 987.65576172 983.03466797 C989.42021999 981.54846472 991.17968746 980.05655605 992.9375 978.5625 C993.4543335 978.12518555 993.97116699 977.68787109 994.50366211 977.23730469 C1005.48902058 967.8293566 1015.84399932 957.75838342 1026.04882812 947.51904297 C1027.95328505 945.60917006 1029.86310819 943.70477851 1031.7734375 941.80078125 C1037.74756802 935.83023862 1043.64031044 929.85950387 1049.0625 923.375 C1049.96276853 922.33006257 1050.86378029 921.28576489 1051.765625 920.2421875 C1080.3232612 886.69134497 1104.87070043 850.01110046 1124.10791016 810.33740234 C1125.04389576 808.41324574 1125.99605691 806.49772383 1126.94921875 804.58203125 C1157.15610288 743.04234901 1171.27389465 673.32134504 1171.3125 605.0625 C1171.31317474 603.98396759 1171.31384949 602.90543518 1171.31454468 601.79421997 C1171.29581126 582.82952289 1170.44742465 564.18914474 1168.0625 545.375 C1167.93875 544.39095184 1167.93875 544.39095184 1167.8125 543.38702393 C1160.79671144 488.12925661 1143.23111509 435.63034573 1118.375 385.875 C1117.9214917 384.96717773 1117.4679834 384.05935547 1117.00073242 383.12402344 C1114.92390017 378.99223223 1112.81335279 374.88907135 1110.59375 370.83203125 C1110.21694092 370.12691406 1109.84013184 369.42179687 1109.4519043 368.6953125 C1108.76952436 367.42306299 1108.06978792 366.15984768 1107.34692383 364.91015625 C1102.16918368 355.16123868 1105.73241256 343.29244008 1107.73022461 333.04077148 C1108.01907522 331.51875122 1108.30703335 329.99656136 1108.5941782 328.47421837 C1109.37570681 324.34455708 1110.1696123 320.21736226 1110.96572113 316.09049058 C1111.8113925 311.69476287 1112.64532885 307.29680887 1113.48059082 302.89909363 C1114.90452707 295.41035154 1116.33553955 287.9229919 1117.771698 280.43658447 C1119.81339712 269.79348163 1121.84442195 259.14836564 1123.87214959 248.50259304 C1124.78963313 243.68577368 1125.70750662 238.86902867 1126.62550354 234.05230713 C1126.80627243 233.10381268 1126.98704131 232.15531822 1127.17328805 231.17808151 C1128.44531647 224.50507745 1129.71946362 217.83248009 1130.99473572 211.16009521 C1135.00087686 190.19866519 1138.99134225 169.23453687 1142.9375 148.26171875 C1143.24806933 146.61178452 1143.24806933 146.61178452 1143.5649128 144.9285183 C1145.22790653 136.09288274 1146.88874612 127.25684351 1148.54733276 118.42037964 C1149.34367097 114.17834733 1150.14190158 109.93667547 1150.94160461 105.69527626 C1151.35411048 103.50426841 1151.7643295 101.31284117 1152.17443848 99.12138367 C1152.41263306 97.85881241 1152.65082764 96.59624115 1152.89624023 95.29541016 C1153.09950424 94.21297028 1153.30276825 93.1305304 1153.51219177 92.01528931 C1154.0625 89.375 1154.0625 89.375 1155.0625 86.375 C1150.91976377 86.93120421 1147.54961772 87.86009965 1143.7734375 89.640625 C1142.25967529 90.34723267 1142.25967529 90.34723267 1140.71533203 91.06811523 C1139.09280518 91.83877319 1139.09280518 91.83877319 1137.4375 92.625 C1135.72409424 93.42756226 1135.72409424 93.42756226 1133.97607422 94.24633789 C1131.55628948 95.37977785 1129.13773532 96.5155196 1126.72070312 97.65478516 C1120.88886857 100.40101037 1115.03631663 103.10269507 1109.1875 105.8125 C1106.82146143 106.91112856 1104.45557656 108.01008818 1102.08984375 109.109375 C1100.92050293 109.65271484 1099.75116211 110.19605469 1098.54638672 110.75585938 C1096.27451446 111.81171479 1094.00270171 112.86769825 1091.73095703 113.92382812 C1077.28901938 120.63781784 1062.83687386 127.32908641 1048.375 134 C1034.62080687 140.34511682 1020.8697081 146.69685958 1007.125 153.0625 C1006.27347351 153.45673157 1005.42194702 153.85096313 1004.5446167 154.25714111 C995.56773119 158.41408457 986.59779407 162.58485552 977.6484375 166.80078125 C976.90752365 167.14952805 976.1666098 167.49827484 975.40324402 167.85758972 C971.95237749 169.48233639 968.50312863 171.11034399 965.05688477 172.74487305 C942.74537763 183.29757587 942.74537763 183.29757587 930.5 179.6015625 C927.8852468 178.35602128 925.5042899 176.93464037 923.0625 175.375 C921.96421875 174.68148437 920.8659375 173.98796875 919.734375 173.2734375 C917.78842867 172.04421544 915.84265476 170.81479577 913.89941406 169.58129883 C844.21902969 125.78966245 762.90801418 99.75865819 604.0625 81.375 C603.15790039 81.35308594 602.25330078 81.33117187 601.32128906 81.30859375 C556.63049862 80.345776 511.91131122 84.99657515 468.0625 93.375 C466.85368164 93.60413086 465.64486328 93.83326172 464.39941406 94.06933594 C394.89650491 107.48696116 324.25972865 133.90443489 264.77148438 172.37915039 C258.59846803 175.9762552 250.85693568 175.80790643 244.0625 174.375 C235.63439808 171.40777773 227.68109813 167.19316577 219.70751953 163.1875 C214.11669104 160.38940382 208.42971185 157.79893318 202.75 155.1875 C200.41375335 154.10353064 198.07782687 153.018871 195.7421875 151.93359375 C186.95935686 147.85890833 178.1667676 143.80535453 169.375 139.75 C143.87325596 127.98627806 118.37917315 116.20568236 92.9375 104.3125 C81.85521906 99.13334358 70.7595541 93.98350394 59.65509033 88.8520813 C57.89915648 88.04055577 56.14341588 87.22861193 54.38787842 86.41622925 C51.93497501 85.28137267 49.48127989 84.14824641 47.02734375 83.015625 C46.29540298 82.67670731 45.56346222 82.33778961 44.80934143 81.98860168 C41.2603941 80.3530448 37.71019719 78.78230568 34.0625 77.375 Z " fill="#000100" transform="translate(47.9375,-0.37499999999999994)"/>
<path d="M0 0 C0.81146484 -0.00073643 1.62292969 -0.00147285 2.45898438 -0.0022316 C27.72074958 -0.02090319 52.73975707 0.5143415 77.875 3.25 C79.15084961 3.37810059 80.42669922 3.50620117 81.74121094 3.63818359 C85.24647657 3.99018257 88.74857957 4.36173765 92.25 4.75 C93.20777344 4.85610596 94.16554688 4.96221191 95.15234375 5.0715332 C110.25274936 6.95496262 110.25274936 6.95496262 115.12890625 11.22265625 C115.77666016 12.25712891 115.77666016 12.25712891 116.4375 13.3125 C116.89253906 14.00472656 117.34757812 14.69695313 117.81640625 15.41015625 C120.76262287 20.53070247 120.54928935 25.89968869 119.39208984 31.64941406 C118.69717728 34.09366003 117.9095208 36.47920131 117.0625 38.875 C116.7533667 39.77105957 116.4442334 40.66711914 116.12573242 41.59033203 C99.83970561 87.31420978 72.06357271 131.55660161 38.140625 166.34765625 C36.64639855 168.14509718 36.64639855 168.14509718 37.11767578 170.20239258 C38.42346406 173.73290395 41.60239255 175.64324871 44.5 177.875 C45.171521 178.40061523 45.84304199 178.92623047 46.53491211 179.46777344 C74.15540943 200.81190964 104.47344328 216.74995407 140 216.5625 C141.09865891 216.55926727 141.09865891 216.55926727 142.21951294 216.55596924 C169.26283947 216.42813975 193.99942239 210.55094357 213.875 191.25 C214.55046875 190.64800781 215.2259375 190.04601562 215.921875 189.42578125 C234.22178834 172.55326115 242.92966058 146.23194718 247.40234375 122.44140625 C247.53112915 121.75748306 247.65991455 121.07355988 247.79260254 120.36891174 C248.42742852 116.96240621 249.03612675 113.55363645 249.60791016 110.13598633 C251.19786134 101.14135621 252.89244804 91.84485781 260.625 86.125 C265.01775323 83.78772375 269.00317296 83.45312123 273.875 84.25 C278.75080455 85.75024755 281.52651778 88.28343156 283.953125 92.6796875 C292.53893179 116.61808102 275.41517464 156.39428393 265.421875 178.08203125 C260.28334811 188.77429984 253.57341656 198.23612585 245.875 207.25 C245.20082031 208.05824219 244.52664063 208.86648438 243.83203125 209.69921875 C223.00485567 233.86481227 194.23068513 246.37559063 162.875 250.25 C161.9984375 250.36085938 161.121875 250.47171875 160.21875 250.5859375 C107.66907865 256.04756065 62.18161131 235.8657955 21.875 203.25 C20.92882812 202.44949219 19.98265625 201.64898438 19.0078125 200.82421875 C17.67363281 199.70466797 17.67363281 199.70466797 16.3125 198.5625 C15.54808594 197.89863281 14.78367187 197.23476563 13.99609375 196.55078125 C12.02107633 195.08698113 12.02107633 195.08698113 9.984375 195.2421875 C6.86443017 196.73282781 4.33574036 198.87526352 1.6875 201.0625 C-11.80789022 211.89131828 -25.74039712 221.30757027 -41.125 229.25 C-41.8046582 229.60545898 -42.48431641 229.96091797 -43.18457031 230.32714844 C-85.69246863 252.3139924 -135.5594497 257.67279382 -181.30566406 243.578125 C-217.88214451 231.74708666 -245.97084056 204.22797541 -263.53125 170.72265625 C-272.32616305 153.32062851 -278.43263356 134.38143231 -282.125 115.25 C-282.25664551 114.57582031 -282.38829102 113.90164063 -282.52392578 113.20703125 C-283.96045688 105.5794325 -285.13047562 99.22728011 -281.125 92.25 C-277.53527283 87.88411561 -273.67269856 84.77322173 -267.953125 83.9296875 C-262.52198988 83.65630822 -259.31502442 84.54718772 -255.125 88.25 C-250.75911576 93.53813498 -249.88834464 98.9153951 -248.6875 105.5625 C-243.608065 131.59239377 -235.19745616 159.14391289 -217.125 179.25 C-216.61066406 179.90484375 -216.09632813 180.5596875 -215.56640625 181.234375 C-199.89972454 200.76889085 -173.80033918 212.79904339 -149.41064453 215.93652344 C-123.20750876 218.43651053 -97.72737512 215.78478206 -73.125 206.25 C-72.44775879 205.98848145 -71.77051758 205.72696289 -71.07275391 205.45751953 C-51.7447281 197.83552819 -32.95658535 186.34549999 -17.57470703 172.36035156 C-16.125 171.25 -16.125 171.25 -14.125 171.25 C-17.93203061 165.92015715 -22.05868856 160.97935802 -26.375 156.0625 C-32.25807066 149.33376392 -37.80681829 142.43363023 -43.125 135.25 C-43.61967773 134.58661621 -44.11435547 133.92323242 -44.62402344 133.23974609 C-66.08400839 104.3777171 -84.79838555 72.76902814 -97.8125 39.1875 C-98.44599365 37.55518433 -98.44599365 37.55518433 -99.09228516 35.88989258 C-104.44001278 21.6564522 -104.44001278 21.6564522 -101.2734375 14.17578125 C-98.23792379 9.0856171 -93.63222746 6.13292168 -88.125 4.25 C-85.60309024 3.89888815 -83.1462208 3.62695062 -80.61328125 3.43359375 C-79.88618454 3.37220718 -79.15908783 3.31082062 -78.40995789 3.24757385 C-76.86792588 3.11883026 -75.32557781 2.99382486 -73.78295898 2.87231445 C-71.48935197 2.69158576 -69.19684695 2.500269 -66.90429688 2.30664062 C-63.05491827 1.98608425 -59.20414132 1.69153503 -55.3515625 1.41217041 C-53.30100314 1.26281909 -51.2510514 1.1051864 -49.20117188 0.94677734 C-32.83984344 -0.20957393 -16.39327313 0.00680417 0 0 Z " fill="#000100" transform="translate(624.125,709.75)"/>
<path d="M0 0 C3.60988485 3.00893172 6.90772673 6.28424289 10.20019531 9.63330078 C10.83957031 10.21466797 11.47894531 10.79603516 12.13769531 11.39501953 C29.7035647 27.53772821 40.08373453 53.24609893 41.30957031 76.72851562 C42.31942326 105.54088261 34.17187043 130.91263873 15.20019531 152.63330078 C14.23339844 153.75285156 14.23339844 153.75285156 13.24707031 154.89501953 C-2.64990767 171.93243289 -26.25096513 183.59651515 -49.59179688 184.77416992 C-64.10579015 185.2208749 -77.89480719 185.09612316 -91.79980469 180.63330078 C-92.44272461 180.42962891 -93.08564453 180.22595703 -93.74804688 180.01611328 C-109.75633505 174.7370442 -122.91724683 165.36961178 -134.79980469 153.63330078 C-135.45207031 153.05322266 -136.10433594 152.47314453 -136.77636719 151.87548828 C-151.83225242 138.19456974 -161.77999682 113.24269157 -162.94042969 93.20507812 C-163.98640017 63.48382691 -156.32835012 36.14674556 -135.98730469 13.75830078 C-101.12376744 -22.93546057 -41.37064246 -31.41520028 0 0 Z " fill="#000100" transform="translate(911.7998046875,422.36669921875)"/>
<path d="M0 0 C3.95815446 3.35248616 7.64849857 6.94456227 11.28955078 10.63525391 C12.10166016 11.43705078 12.91376953 12.23884766 13.75048828 13.06494141 C30.48091373 30.49980583 40.43005213 54.53192221 41.28955078 78.63525391 C41.32951172 79.47701172 41.36947266 80.31876953 41.41064453 81.18603516 C42.10113033 108.60238312 31.93414764 134.36027595 13.14111328 154.23291016 C-4.53392438 172.37687738 -27.62435133 184.15292315 -53.30029297 184.83837891 C-85.33500806 185.23676419 -111.00263288 176.62854871 -134.31787109 154.31005859 C-152.61323542 136.3652235 -163.24436028 111.11252058 -163.75390625 85.44628906 C-163.64608211 56.49233545 -151.90110213 30.44803099 -132.02294922 9.57275391 C-97.72089947 -23.78951366 -38.49871352 -30.71764324 0 0 Z " fill="#000100" transform="translate(492.71044921875,423.36474609375)"/>
<path d="M0 0 C1.06024384 0.05867249 1.06024384 0.05867249 2.14190674 0.11853027 C12.50241314 0.71370505 22.76947058 1.82632069 33.0625 3.125 C34.25479033 7.28563055 33.87965901 9.44112517 32.09765625 13.3515625 C31.40446289 14.87922241 31.40446289 14.87922241 30.69726562 16.43774414 C30.17841797 17.53078857 29.65957031 18.62383301 29.125 19.75 C28.58939453 20.89138428 28.05378906 22.03276855 27.50195312 23.20874023 C18.2127173 42.55999388 6.94688389 60.96141057 -5.9375 78.125 C-6.36724121 78.7034668 -6.79698242 79.28193359 -7.23974609 79.87792969 C-15.58531049 91.08437278 -24.67971591 101.66654766 -33.9375 112.125 C-38.72675171 109.22456691 -42.07109198 106.0507481 -45.625 101.75 C-46.14263916 101.13350586 -46.66027832 100.51701172 -47.19360352 99.88183594 C-48.78713828 97.97260318 -50.36537899 96.05189168 -51.9375 94.125 C-52.40349609 93.55426758 -52.86949219 92.98353516 -53.34960938 92.39550781 C-65.75444676 77.09978841 -77.00357467 61.13007045 -86.9375 44.125 C-87.31825684 43.47917969 -87.69901367 42.83335937 -88.09130859 42.16796875 C-95.34269981 29.81919146 -101.62001123 16.96911263 -107.9375 4.125 C-107.2775 3.135 -106.6175 2.145 -105.9375 1.125 C-102.98388672 0.60083008 -102.98388672 0.60083008 -99.1171875 0.39453125 C-98.40771973 0.35420273 -97.69825195 0.31387421 -96.96728516 0.27232361 C-94.58288499 0.14358096 -92.19820447 0.03905931 -89.8125 -0.0625 C-88.56850433 -0.12129333 -88.56850433 -0.12129333 -87.29937744 -0.18127441 C-58.24249417 -1.54224932 -29.04654228 -1.62516805 0 0 Z " fill="#FBFDFD" transform="translate(669.9375,743.875)"/>
<path d="M0 0 C8.31389793 5.99863522 15.44484732 16.32328879 17.16015625 26.55859375 C17.96574348 40.59440208 16.69997143 51.52198337 7.16015625 62.55859375 C-1.15465127 71.03414447 -10.71383719 74.64863767 -22.52734375 74.99609375 C-35.3995226 74.51648132 -46.2580063 69.12076984 -55.0859375 59.7578125 C-61.09338157 52.22509309 -64.47556408 42.52284814 -64.1484375 32.84375 C-62.69872939 22.1085697 -58.40134483 11.55637233 -50.2578125 4.23828125 C-34.629306 -7.60878242 -17.3354691 -10.3034446 0 0 Z " fill="#FBFDFD" transform="translate(903.83984375,466.44140625)"/>
<path d="M0 0 C8.89952171 6.34768753 14.3482107 15.25417982 16.89453125 25.78125 C18.82191633 37.74184525 17.05645919 48.42751259 9.96875 58.27734375 C2.75887472 67.40871881 -5.98506331 72.92727587 -17.6875 74.375 C-31.1558513 75.60338383 -41.13409455 70.6042807 -51.9375 63.125 C-59.56570992 55.49679008 -63.69998527 45.61449888 -64.0625 34.875 C-63.67429955 23.3583866 -58.8723345 11.92814832 -50.4375 4 C-35.17946106 -8.53522391 -16.91967709 -10.18072878 0 0 Z " fill="#FBFDFD" transform="translate(484.6875,467.625)"/>
</svg>
